<?xml version="1.0" encoding="UTF-8" standalone="no"?>
<svg
   xmlns:dc="http://purl.org/dc/elements/1.1/"
   xmlns:cc="http://creativecommons.org/ns#"
   xmlns:rdf="http://www.w3.org/1999/02/22-rdf-syntax-ns#"
   xmlns:svg="http://www.w3.org/2000/svg"
   xmlns="http://www.w3.org/2000/svg"
   xmlns:sodipodi="http://sodipodi.sourceforge.net/DTD/sodipodi-0.dtd"
   xmlns:inkscape="http://www.inkscape.org/namespaces/inkscape"
   version="1.1"
   id="svg2"
   xml:space="preserve"
   width="106.66667"
   height="40"
   viewBox="0 0 106.66667 40"
   sodipodi:docname="Mekb.ai"><metadata
     id="metadata8"><rdf:RDF><cc:Work
         rdf:about=""><dc:format>image/svg+xml</dc:format><dc:type
           rdf:resource="http://purl.org/dc/dcmitype/StillImage" /></cc:Work></rdf:RDF></metadata><defs
     id="defs6" /><sodipodi:namedview
     pagecolor="#ffffff"
     bordercolor="#666666"
     borderopacity="1"
     objecttolerance="10"
     gridtolerance="10"
     guidetolerance="10"
     inkscape:pageopacity="0"
     inkscape:pageshadow="2"
     inkscape:window-width="640"
     inkscape:window-height="480"
     id="namedview4" /><g
     id="g10"
     inkscape:groupmode="layer"
     inkscape:label="Mekb"
     transform="matrix(1.3333333,0,0,-1.3333333,0,40)"><g
       id="g12"
       transform="translate(76.4568,28.9521)"><path
         d="m 0,0 -13.883,-13.952 13.771,-13.952 h 3.654 v 3.554 L -6.997,-13.952 3.542,-3.471 V 0 Z"
         style="fill:#ffffff;fill-opacity:1;fill-rule:nonzero;stroke:none"
         id="path14" /></g><g
       id="g16"
       transform="translate(41.7303,28.8702)"><path
         d="m 0,0 -3.227,-2.477 3.213,-2.465 h 0.016 3.815 l 0.017,-0.013 v 0.013 h 10.611 v -6.577 H 1.46 v -4.943 H 14.445 V -22.88 H -7.567 V 0 h -0.106 -5.963 -7.881 -6.069 -8.076 -5.835 -0.233 v -23.859 -10e-4 -0.001 l 3.042,-3.962 3.026,3.943 v 0.02 10e-4 17.79 h 8.076 v -17.79 -10e-4 -0.001 l 3.042,-3.962 3.027,3.943 v 0.02 10e-4 17.79 h 7.881 v -21.754 h 0.253 5.816 26.955 v 0.086 4.857 6.418 4.943 6.577 V -0.19 0 H 0.002 v 0.002 z"
         style="fill:#ffffff;fill-opacity:1;fill-rule:nonzero;stroke:none"
         id="path18" /></g><g
       id="g20"
       transform="translate(41.4479,17.4305)"><path
         d="m 0,0 h -0.001 l -3.227,-2.477 3.211,-2.466 H 0 Z"
         style="fill:#ffffff;fill-opacity:1;fill-rule:nonzero;stroke:none"
         id="path22" /></g></g></svg>
